v -2.05656 1.41575 4.86952
v -2.93156 1.41575 4.86952
v -1.99406 1.34544 4.79139
v -2.99406 1.34544 4.79139
v -1.94719 1.30637 4.68202
v -3.04094 1.30637 4.68202
v -2.1425 1.22825 4.72108
v -2.84563 1.22825 4.72108
v -2.1425 1.28294 4.82264
v -2.84563 1.28294 4.82264
v -2.1425 1.3845 4.88514
v -2.84563 1.3845 4.88514
v -2.22063 1.41575 4.90077
v -2.7675 1.41575 4.90077
v -2.29094 1.34544 4.84608
v -2.69719 1.34544 4.84608
v -2.33781 1.30637 4.75233
v -2.65031 1.30637 4.75233
v -2.41594 1.49387 4.76014
v -2.57219 1.49387 4.76014
v -2.35344 1.49387 4.84608
v -2.63469 1.49387 4.84608
v -2.25188 1.49387 4.90077
v -2.73625 1.49387 4.90077
v -2.22063 1.57981 4.90077
v -2.7675 1.57981 4.90077
v -2.29094 1.64231 4.84608
v -2.69719 1.64231 4.84608
v -2.33781 1.68919 4.75233
v -2.65031 1.68919 4.75233
v -2.1425 1.76731 4.72108
v -2.84563 1.76731 4.72108
v -2.1425 1.70481 4.82264
v -2.84563 1.70481 4.82264
v -2.1425 1.61106 4.88514
v -2.84563 1.61106 4.88514
v -2.05656 1.57981 4.86952
v -2.93156 1.57981 4.86952
v -1.99406 1.64231 4.79139
v -2.99406 1.64231 4.79139
v -1.94719 1.68919 4.68202
v -3.04094 1.68919 4.68202
v -1.86906 1.49387 4.66639
v -3.11906 1.49387 4.66639
v -1.93156 1.49387 4.77577
v -3.05656 1.49387 4.77577
v -2.02531 1.49387 4.8617
v -2.96281 1.49387 4.8617
v -2.0175 1.49387 4.87733
v -2.97063 1.49387 4.87733
v -2.04875 1.58762 4.88514
v -2.93938 1.58762 4.88514
v -2.1425 1.62669 4.90858
v -2.84563 1.62669 4.90858
v -2.22844 1.58762 4.9242
v -2.75969 1.58762 4.9242
v -2.2675 1.49387 4.9242
v -2.72063 1.49387 4.9242
v -2.22844 1.40794 4.9242
v -2.75969 1.40794 4.9242
v -2.1425 1.49387 4.93202
v -2.84563 1.49387 4.93202
v -2.1425 1.36887 4.90858
v -2.84563 1.36887 4.90858
v -2.04875 1.40794 4.88514
v -2.93938 1.40794 4.88514
v -2.49406 1.68137 4.84608
v -2.49406 1.60325 4.9242
v -2.49406 0.572 4.83827
v -2.49406 0.93137 4.88514
v -2.49406 1.06419 4.90077
v -2.49406 0.47825 4.82264
v -2.49406 1.65794 4.70545
v -2.49406 1.822 4.6742
v -2.49406 2.15012 3.55702
v -2.49406 1.81419 3.25233
v -2.49406 1.322 3.27577
v -2.49406 0.86887 3.75233
v -2.29094 1.06419 4.66639
v -2.69719 1.06419 4.66639
v -2.18156 0.81419 4.6742
v -2.80656 0.81419 4.6742
v -2.1425 0.55637 4.6742
v -2.84563 0.55637 4.6742
v -2.12688 0.36106 4.63514
v -2.86125 0.36106 4.63514
v -2.16594 0.30637 4.62733
v -2.82219 0.30637 4.62733
v -2.31438 0.28294 4.65858
v -2.67375 0.28294 4.65858
v -2.49406 0.26731 4.68202
v -2.05656 1.11106 4.63514
v -2.93156 1.11106 4.63514
v -1.86125 1.21262 4.64295
v -3.12688 1.21262 4.64295
v -1.66594 1.40012 4.5492
v -3.32219 1.40012 4.5492
v -1.63469 1.68137 4.69764
v -3.35344 1.68137 4.69764
v -1.78313 1.73606 4.72889
v -3.205 1.73606 4.72889
v -2.00188 1.85325 4.79139
v -2.98625 1.85325 4.79139
v -2.17375 2.0095 4.83827
v -2.81438 2.0095 4.83827
v -2.33781 1.97044 4.8617
v -2.65031 1.97044 4.8617
v -2.43156 1.74387 4.85389
v -2.55656 1.74387 4.85389
v -2.33 1.66575 4.87733
v -2.65813 1.66575 4.87733
v -2.36906 1.55637 4.86952
v -2.61906 1.55637 4.86952
v -2.29094 1.34544 4.84608
v -2.69719 1.34544 4.84608
v -2.11906 1.26731 4.80702
v -2.86906 1.26731 4.80702
v -2.00188 1.31419 4.77577
v -2.98625 1.31419 4.77577
v -1.86906 1.43919 4.75233
v -3.11906 1.43919 4.75233
v -1.85344 1.54856 4.75233
v -3.13469 1.54856 4.75233
v -1.8925 1.62669 4.76795
v -3.09563 1.62669 4.76795
v -2.06438 1.68919 4.82264
v -2.92375 1.68919 4.82264
v -2.24406 1.72044 4.8617
v -2.74406 1.72044 4.8617
v -2.49406 0.48606 4.83827
v -2.38469 0.53294 4.83827
v -2.60344 0.53294 4.83827
v -2.37688 0.41575 4.81483
v -2.61125 0.41575 4.81483
v -2.43156 0.36887 4.7992
v -2.55656 0.36887 4.7992
v -2.49406 0.36106 4.79139
v -2.49406 1.05637 4.85389
v -2.49406 1.11106 4.84608
v -2.3925 1.10325 4.84608
v -2.59563 1.10325 4.84608
v -2.36906 1.02512 4.85389
v -2.61906 1.02512 4.85389
v -2.40813 0.96262 4.84608
v -2.58 0.96262 4.84608
v -2.09563 1.20481 4.77577
v -2.8925 1.20481 4.77577
v -1.87688 1.30637 4.72889
v -3.11125 1.30637 4.72889
v -1.7675 1.45481 4.70545
v -3.22063 1.45481 4.70545
v -1.75188 1.62669 4.76014
v -3.23625 1.62669 4.76014
v -1.80656 1.66575 4.83045
v -3.18156 1.66575 4.83045
v -2.05656 1.79856 4.90077
v -2.93156 1.79856 4.90077
v -2.18156 1.89231 4.93983
v -2.80656 1.89231 4.93983
v -2.29094 1.86887 4.95545
v -2.69719 1.86887 4.95545
v -2.3925 1.68137 4.94764
v -2.59563 1.68137 4.94764
v -2.36906 1.15012 4.91639
v -2.61906 1.15012 4.91639
v -2.28313 0.80637 4.81483
v -2.705 0.80637 4.81483
v -2.24406 0.54856 4.79139
v -2.74406 0.54856 4.79139
v -2.22844 0.43137 4.76795
v -2.75969 0.43137 4.76795
v -2.25969 0.33762 4.7367
v -2.72844 0.33762 4.7367
v -2.33 0.322 4.7367
v -2.65813 0.322 4.7367
v -2.49406 0.30637 4.74452
v -2.49406 1.29856 4.83045
v -2.49406 1.46262 4.86952
v -2.16594 1.72825 4.84608
v -2.82219 1.72825 4.84608
v -2.33 1.39231 4.85389
v -2.65813 1.39231 4.85389
v -2.36125 1.46262 4.8617
v -2.62688 1.46262 4.8617
v -2.37688 0.56419 4.83827
v -2.61125 0.56419 4.83827
v -2.41594 0.80637 4.85389
v -2.57219 0.80637 4.85389
v -2.49406 0.80637 4.85389
v -2.49406 0.92356 4.84608
v -2.40031 0.97825 4.88514
v -2.58781 0.97825 4.88514
v -2.36125 1.02512 4.90077
v -2.62688 1.02512 4.90077
v -2.38469 1.11887 4.88514
v -2.60344 1.11887 4.88514
v -2.455 1.12669 4.88514
v -2.53313 1.12669 4.88514
v -2.49406 1.04856 4.93202
v -2.44719 1.10325 4.91639
v -2.54094 1.10325 4.91639
v -2.40031 1.09544 4.91639
v -2.58781 1.09544 4.91639
v -2.38469 1.02512 4.93202
v -2.60344 1.02512 4.93202
v -2.41594 1.00169 4.90858
v -2.57219 1.00169 4.90858
v -2.49406 0.96262 4.90858
v -2.23625 0.93919 4.65858
v -2.75188 0.93919 4.65858
v -2.33 1.0095 4.81483
v -2.65813 1.0095 4.81483
v -2.31438 0.93919 4.81483
v -2.67375 0.93919 4.81483
v -2.25969 1.00169 4.65858
v -2.72844 1.00169 4.65858
v -2.49406 0.37669 4.79139
v -2.44719 0.3845 4.79139
v -2.54094 0.3845 4.79139
v -2.40031 0.43137 4.81483
v -2.58781 0.43137 4.81483
v -2.40031 0.5095 4.83045
v -2.58781 0.5095 4.83045
v -2.49406 0.47044 4.76014
v -2.40031 0.50169 4.76795
v -2.58781 0.50169 4.76795
v -2.40031 0.43919 4.74452
v -2.58781 0.43919 4.74452
v -2.44719 0.40012 4.7367
v -2.54094 0.40012 4.7367
v -2.49406 0.39231 4.7367
v -2.32219 1.47044 4.88514
v -2.66594 1.47044 4.88514
v -2.30656 1.40794 4.87733
v -2.68156 1.40794 4.87733
v -2.15813 1.68137 4.8617
v -2.83 1.68137 4.8617
v -2.22063 1.67356 4.87733
v -2.7675 1.67356 4.87733
v -2.07219 1.65012 4.87733
v -2.91594 1.65012 4.87733
v -1.93156 1.60325 4.7992
v -3.05656 1.60325 4.7992
v -1.90813 1.54075 4.79139
v -3.08 1.54075 4.79139
v -1.91594 1.447 4.78358
v -3.07219 1.447 4.78358
v -2.0175 1.35325 4.82264
v -2.97063 1.35325 4.82264
v -2.11906 1.31419 4.84608
v -2.86906 1.31419 4.84608
v -2.2675 1.36106 4.88514
v -2.72063 1.36106 4.88514
v -2.31438 1.54856 4.88514
v -2.67375 1.54856 4.88514
v -2.28313 1.62669 4.88514
v -2.705 1.62669 4.88514
v -2.25969 1.61106 4.8617
v -2.72844 1.61106 4.8617
v -2.29875 1.54856 4.8617
v -2.68938 1.54856 4.8617
v -2.25188 1.37669 4.8617
v -2.73625 1.37669 4.8617
v -2.11906 1.33762 4.83045
v -2.86906 1.33762 4.83045
v -2.03313 1.36887 4.80702
v -2.955 1.36887 4.80702
v -1.94719 1.46262 4.77577
v -3.04094 1.46262 4.77577
v -1.93938 1.53294 4.77577
v -3.04875 1.53294 4.77577
v -1.96281 1.58762 4.78358
v -3.02531 1.58762 4.78358
v -2.08 1.64231 4.85389
v -2.90813 1.64231 4.85389
v -2.21281 1.65012 4.86952
v -2.77531 1.65012 4.86952
v -2.15813 1.65794 4.85389
v -2.83 1.65794 4.85389
v -2.29094 1.42356 4.85389
v -2.69719 1.42356 4.85389
v -2.29875 1.47825 4.85389
v -2.68938 1.47825 4.85389
v -2.38469 1.71262 4.71327
v -2.60344 1.71262 4.71327
v -2.29875 1.91575 4.72108
v -2.68938 1.91575 4.72108
v -2.15813 1.93919 4.69764
v -2.83 1.93919 4.69764
v -2.00969 1.80637 4.65858
v -2.97844 1.80637 4.65858
v -1.81438 1.70481 4.59608
v -3.17375 1.70481 4.59608
v -1.69719 1.65794 4.56483
v -3.29094 1.65794 4.56483
v -1.72063 1.41575 4.47889
v -3.2675 1.41575 4.47889
v -1.8925 1.25169 4.51795
v -3.09563 1.25169 4.51795
v -2.05656 1.15794 4.57264
v -2.93156 1.15794 4.57264
v -2.49406 2.15012 4.39295
v -2.49406 2.23606 4.02577
v -2.49406 1.05637 3.43202
v -2.49406 0.79075 4.29139
v -2.49406 0.27512 4.56483
v -2.49406 0.447 4.44764
v -2.49406 0.68137 4.4242
v -2.49406 0.76731 4.38514
v -1.6425 1.48606 4.15858
v -3.34563 1.48606 4.15858
v -1.63469 1.572 4.05702
v -3.35344 1.572 4.05702
v -1.72063 1.51731 3.66639
v -3.2675 1.51731 3.66639
v -2.03313 1.68919 3.40077
v -2.955 1.68919 3.40077
v -1.75969 1.20481 4.1742
v -3.22844 1.20481 4.1742
v -1.90031 1.12669 3.93983
v -3.08781 1.12669 3.93983
v -1.85344 1.24387 3.67421
v -3.13469 1.24387 3.67421
v -2.15813 1.30637 3.43983
v -2.83 1.30637 3.43983
v -2.25969 0.90012 4.51014
v -2.72844 0.90012 4.51014
v -2.31438 0.83762 4.3617
v -2.67375 0.83762 4.3617
v -2.205 0.54075 4.4867
v -2.78313 0.54075 4.4867
v -2.24406 0.75169 4.49452
v -2.74406 0.75169 4.49452
v -2.16594 0.33762 4.50233
v -2.82219 0.33762 4.50233
v -2.35344 0.49387 4.47108
v -2.63469 0.49387 4.47108
v -2.36906 0.71262 4.46327
v -2.61906 0.71262 4.46327
v -2.33 0.30637 4.54139
v -2.65813 0.30637 4.54139
v -2.27531 0.97044 4.53358
v -2.71281 0.97044 4.53358
v -2.28313 1.02512 4.57264
v -2.705 1.02512 4.57264
v -2.29094 1.07981 4.60389
v -2.69719 1.07981 4.60389
v -2.28313 0.86106 4.26795
v -2.705 0.86106 4.26795
v -2.19719 0.93919 3.83827
v -2.79094 0.93919 3.83827
v -2.15031 1.10325 3.56483
v -2.83781 1.10325 3.56483
v -2.04094 2.11887 3.72108
v -2.94719 2.11887 3.72108
v -2.04094 2.18137 4.03358
v -2.94719 2.18137 4.03358
v -2.04094 2.10325 4.33827
v -2.94719 2.10325 4.33827
v -2.03313 1.77512 4.53358
v -2.955 1.77512 4.53358
v -1.7675 1.65794 4.43983
v -3.22063 1.65794 4.43983
v -1.86125 1.70481 4.38514
v -3.12688 1.70481 4.38514
v -1.85344 1.95481 4.15858
v -3.13469 1.95481 4.15858
v -1.69719 1.81419 4.22889
v -3.29094 1.81419 4.22889
v -1.69719 1.86887 3.98671
v -3.29094 1.86887 3.98671
v -1.85344 2.00169 3.90858
v -3.13469 2.00169 3.90858
v -1.85344 1.93137 3.65858
v -3.13469 1.93137 3.65858
v -1.69719 1.79075 3.74452
v -3.29094 1.79075 3.74452
v -1.87688 1.57981 3.51796
v -3.11125 1.57981 3.51796
v -2.00969 1.27512 3.55702
v -2.97844 1.27512 3.55702
v -1.67375 1.57981 3.90077
v -3.31438 1.57981 3.90077
v -2.08781 1.07981 4.25233
v -2.90031 1.07981 4.25233
v -2.06438 1.05637 3.89296
v -2.92375 1.05637 3.89296
v -1.60344 1.65794 3.86952
v -3.38469 1.65794 3.86952
v -1.72063 1.11106 3.97889
v -3.2675 1.11106 3.97889
v -1.455 1.15012 3.77577
v -3.53313 1.15012 3.77577
v -1.21281 1.30637 3.67421
v -3.77531 1.30637 3.67421
v -1.1425 1.572 3.68202
v -3.84563 1.572 3.68202
v -1.25969 1.7595 3.68202
v -3.72844 1.7595 3.68202
v -1.47063 1.72825 3.79139
v -3.5175 1.72825 3.79139
v -1.47844 1.66575 3.81483
v -3.50969 1.66575 3.81483
v -1.30656 1.68919 3.71327
v -3.68156 1.68919 3.71327
v -1.22844 1.54075 3.69764
v -3.75969 1.54075 3.69764
v -1.28313 1.32981 3.69764
v -3.705 1.32981 3.69764
v -1.46281 1.21262 3.79921
v -3.52531 1.21262 3.79921
v -1.66594 1.18137 3.97108
v -3.32219 1.18137 3.97108
v -1.57219 1.61106 3.88514
v -3.41594 1.61106 3.88514
v -1.54875 1.55637 3.81483
v -3.43938 1.55637 3.81483
v -1.61125 1.22825 3.89296
v -3.37688 1.22825 3.89296
v -1.455 1.25169 3.73671
v -3.53313 1.25169 3.73671
v -1.30656 1.34544 3.65858
v -3.68156 1.34544 3.65858
v -1.25969 1.50169 3.65858
v -3.72844 1.50169 3.65858
v -1.32219 1.61106 3.66639
v -3.66594 1.61106 3.66639
v -1.47063 1.59544 3.74452
v -3.5175 1.59544 3.74452
v -1.65031 1.54075 3.89296
v -3.33781 1.54075 3.89296
v -1.65813 1.42356 3.83046
v -3.33 1.42356 3.83046
v -1.73625 1.34544 3.83046
v -3.25188 1.34544 3.83046
v -1.67375 1.33762 3.83046
v -3.31438 1.33762 3.83046
v -1.65031 1.26731 3.83046
v -3.33781 1.26731 3.83046
v -1.68156 1.23606 3.83046
v -3.30656 1.23606 3.83046
v -1.7675 1.25169 4.03358
v -3.22063 1.25169 4.03358
v -1.77531 1.22825 3.93202
v -3.21281 1.22825 3.93202
v -1.77531 1.29075 3.91639
v -3.21281 1.29075 3.91639
v -1.69719 1.45481 3.89296
v -3.29094 1.45481 3.89296
v -1.60344 1.49387 3.83827
v -3.38469 1.49387 3.83827
v -1.60344 1.48606 3.78358
v -3.38469 1.48606 3.78358
v -1.68156 1.23606 3.78358
v -3.30656 1.23606 3.78358
v -1.6425 1.26731 3.78358
v -3.34563 1.26731 3.78358
v -1.66594 1.32981 3.78358
v -3.32219 1.32981 3.78358
v -1.72844 1.34544 3.78358
v -3.25969 1.34544 3.78358
v -1.65031 1.42356 3.78358
v -3.33781 1.42356 3.78358
v -1.455 1.57981 3.68983
v -3.53313 1.57981 3.68983
v -1.30656 1.59544 3.61952
v -3.68156 1.59544 3.61952
v -1.23625 1.49387 3.61171
v -3.75188 1.49387 3.61171
v -1.28313 1.33762 3.61952
v -3.705 1.33762 3.61952
v -1.44719 1.25169 3.68202
v -3.54094 1.25169 3.68202
v -1.61125 1.23606 3.83827
v -3.37688 1.23606 3.83827
v -1.54094 1.54075 3.76014
v -3.44719 1.54075 3.76014
v -1.60344 1.36106 3.77577
v -3.38469 1.36106 3.77577
v -1.55656 1.31419 3.76796
v -3.43156 1.31419 3.76796
v -1.49406 1.37669 3.73671
v -3.49406 1.37669 3.73671
v -1.53313 1.42356 3.75233
v -3.455 1.42356 3.75233
v -1.47844 1.48606 3.72889
v -3.50969 1.48606 3.72889
v -1.43938 1.43919 3.72108
v -3.54875 1.43919 3.72108
v -1.38469 1.46262 3.71327
v -3.60344 1.46262 3.71327
v -1.40813 1.52512 3.71327
v -3.58 1.52512 3.71327
v -1.47063 1.68919 3.61952
v -3.5175 1.68919 3.61952
v -1.24406 1.72044 3.55702
v -3.74406 1.72044 3.55702
v -1.12688 1.54856 3.60389
v -3.86125 1.54856 3.60389
v -1.18156 1.30637 3.57264
v -3.80656 1.30637 3.57264
v -1.455 1.16575 3.61171
v -3.53313 1.16575 3.61171
v -1.705 1.12669 3.77577
v -3.28313 1.12669 3.77577
v -1.63469 1.6345 3.72108
v -3.35344 1.6345 3.72108
f 1 3 45 47
f 2 48 46 4
f 3 5 43 45
f 4 46 44 6
f 9 7 5 3
f 10 4 6 8
f 11 9 3 1
f 12 2 4 10
f 13 15 9 11
f 14 12 10 16
f 15 17 7 9
f 16 10 8 18
f 21 19 17 15
f 22 16 18 20
f 23 21 15 13
f 24 14 16 22
f 25 27 21 23
f 26 24 22 28
f 27 29 19 21
f 28 22 20 30
f 33 31 29 27
f 34 28 30 32
f 35 33 27 25
f 36 26 28 34
f 37 39 33 35
f 38 36 34 40
f 39 41 31 33
f 40 34 32 42
f 45 43 41 39
f 46 40 42 44
f 47 45 39 37
f 48 38 40 46
f 37 51 49 47
f 38 48 50 52
f 35 53 51 37
f 36 38 52 54
f 25 55 53 35
f 26 36 54 56
f 23 57 55 25
f 24 26 56 58
f 13 59 57 23
f 14 24 58 60
f 11 63 59 13
f 12 14 60 64
f 1 65 63 11
f 2 12 64 66
f 47 49 65 1
f 48 2 66 50
f 65 49 61
f 66 62 50
f 65 61 63
f 66 64 62
f 59 63 61
f 60 62 64
f 57 59 61
f 58 62 60
f 55 57 61
f 56 62 58
f 53 55 61
f 54 62 56
f 51 53 61
f 52 62 54
f 49 51 61
f 50 62 52
f 174 176 91 89
f 175 90 91 176
f 172 174 89 87
f 173 88 90 175
f 170 172 87 85
f 171 86 88 173
f 168 170 85 83
f 169 84 86 171
f 166 168 83 81
f 167 82 84 169
f 92 146 164 79
f 93 80 165 147
f 94 148 146 92
f 95 93 147 149
f 96 150 148 94
f 97 95 149 151
f 98 152 150 96
f 99 97 151 153
f 100 154 152 98
f 101 99 153 155
f 102 156 154 100
f 103 101 155 157
f 104 158 156 102
f 105 103 157 159
f 106 160 158 104
f 107 105 159 161
f 108 162 160 106
f 109 107 161 163
f 67 68 162 108
f 67 109 163 68
f 128 160 162 110
f 129 111 163 161
f 179 158 160 128
f 180 129 161 159
f 156 158 179 126
f 157 127 180 159
f 154 156 126 124
f 155 125 127 157
f 152 154 124 122
f 153 123 125 155
f 150 152 122 120
f 151 121 123 153
f 148 150 120 118
f 149 119 121 151
f 146 148 118 116
f 147 117 119 149
f 164 146 116 114
f 165 115 117 147
f 181 177 164 114
f 182 115 165 177
f 162 68 112 110
f 163 111 113 68
f 68 178 183 112
f 68 113 184 178
f 181 183 178 177
f 182 177 178 184
f 137 176 174 135
f 137 136 175 176
f 135 174 172 133
f 136 134 173 175
f 133 172 170 131
f 134 132 171 173
f 187 185 168 166
f 188 167 169 186
f 170 168 185 131
f 171 132 186 169
f 190 189 187 144
f 190 145 188 189
f 187 189 69 185
f 188 186 69 189
f 131 185 69 130
f 132 130 69 186
f 193 191 144 142
f 194 143 145 192
f 195 193 142 140
f 196 141 143 194
f 197 195 140 139
f 198 139 141 196
f 71 197 139 138
f 71 138 139 198
f 144 191 70 190
f 145 190 70 192
f 191 206 208 70
f 192 70 208 207
f 199 200 197 71
f 199 71 198 201
f 200 202 195 197
f 201 198 196 203
f 202 204 193 195
f 203 196 194 205
f 204 206 191 193
f 205 194 192 207
f 204 202 200 199
f 205 199 201 203
f 208 206 204 199
f 208 199 205 207
f 140 164 177 139
f 141 139 177 165
f 142 211 164 140
f 143 141 165 212
f 144 213 211 142
f 145 143 212 214
f 187 166 213 144
f 188 145 214 167
f 209 213 166 81
f 210 82 167 214
f 215 211 213 209
f 216 210 214 212
f 164 211 215 79
f 165 80 216 212
f 130 72 222 131
f 130 132 223 72
f 131 222 220 133
f 132 134 221 223
f 133 220 218 135
f 134 136 219 221
f 135 218 217 137
f 136 137 217 219
f 218 229 231 217
f 219 217 231 230
f 220 227 229 218
f 221 219 230 228
f 222 225 227 220
f 223 221 228 226
f 72 224 225 222
f 72 223 226 224
f 231 229 225 224
f 231 224 226 230
f 229 227 225
f 230 226 228
f 181 234 232 183
f 182 184 233 235
f 183 232 254 112
f 184 113 255 233
f 112 254 256 110
f 113 111 257 255
f 114 252 234 181
f 115 182 235 253
f 116 250 252 114
f 117 115 253 251
f 118 248 250 116
f 119 117 251 249
f 120 246 248 118
f 121 119 249 247
f 122 244 246 120
f 123 121 247 245
f 124 242 244 122
f 125 123 245 243
f 126 240 242 124
f 127 125 243 241
f 179 236 240 126
f 180 127 241 237
f 128 238 236 179
f 129 180 237 239
f 110 256 238 128
f 111 129 239 257
f 256 258 276 238
f 257 239 277 259
f 238 276 278 236
f 239 237 279 277
f 236 278 274 240
f 237 241 275 279
f 240 274 272 242
f 241 243 273 275
f 242 272 270 244
f 243 245 271 273
f 244 270 268 246
f 245 247 269 271
f 246 268 266 248
f 247 249 267 269
f 248 266 264 250
f 249 251 265 267
f 250 264 262 252
f 251 253 263 265
f 252 262 280 234
f 253 235 281 263
f 254 260 258 256
f 255 257 259 261
f 232 282 260 254
f 233 255 261 283
f 234 280 282 232
f 235 233 283 281
f 108 284 73 67
f 109 67 73 285
f 106 286 284 108
f 107 109 285 287
f 104 288 286 106
f 105 107 287 289
f 102 290 288 104
f 103 105 289 291
f 100 292 290 102
f 101 103 291 293
f 98 294 292 100
f 99 101 293 295
f 96 296 294 98
f 97 99 295 297
f 94 298 296 96
f 95 97 297 299
f 92 300 298 94
f 93 95 299 301
f 309 328 338 308
f 309 308 339 329
f 308 338 336 307
f 308 307 337 339
f 307 336 340 306
f 307 306 341 337
f 91 306 340 89
f 91 90 341 306
f 89 340 334 87
f 90 88 335 341
f 87 334 330 85
f 88 86 331 335
f 85 330 332 83
f 86 84 333 331
f 336 338 332 330
f 337 331 333 339
f 334 340 336 330
f 335 331 337 341
f 332 338 328 326
f 333 327 329 339
f 83 332 326 81
f 84 82 327 333
f 342 344 215 209
f 343 210 216 345
f 326 342 209 81
f 327 82 210 343
f 215 344 346 79
f 216 80 347 345
f 346 300 92 79
f 347 80 93 301
f 324 352 304 77
f 325 77 304 353
f 352 350 78 304
f 353 304 78 351
f 350 348 305 78
f 351 78 305 349
f 348 328 309 305
f 349 305 309 329
f 328 348 342 326
f 329 327 343 349
f 298 318 310 296
f 299 297 311 319
f 316 324 77 76
f 317 76 77 325
f 358 356 303 302
f 359 302 303 357
f 356 354 75 303
f 357 303 75 355
f 354 316 76 75
f 355 75 76 317
f 294 362 364 292
f 295 293 365 363
f 362 368 366 364
f 363 365 367 369
f 368 370 372 366
f 369 367 373 371
f 370 376 374 372
f 371 373 375 377
f 378 374 376 314
f 379 315 377 375
f 354 374 378 316
f 355 317 379 375
f 356 372 374 354
f 357 355 375 373
f 358 366 372 356
f 359 357 373 367
f 360 364 366 358
f 361 359 367 365
f 292 364 360 290
f 293 291 361 365
f 360 358 302 74
f 361 74 302 359
f 286 288 290 284
f 287 285 291 289
f 290 360 74 284
f 291 285 74 361
f 284 74 73
f 285 73 74
f 296 310 362 294
f 297 295 363 311
f 312 368 362 310
f 313 311 363 369
f 382 370 368 312
f 383 313 369 371
f 376 370 382 314
f 377 315 383 371
f 350 386 384 348
f 351 349 385 387
f 384 386 320 318
f 385 319 321 387
f 300 384 318 298
f 301 299 319 385
f 344 342 384 300
f 345 301 385 343
f 348 384 342
f 349 343 385
f 346 344 300
f 347 301 345
f 322 380 378 314
f 323 315 379 381
f 378 380 324 316
f 379 317 325 381
f 386 380 322 320
f 387 321 323 381
f 352 380 386 350
f 353 351 387 381
f 380 352 324
f 381 325 353
f 388 414 402 400
f 389 401 403 415
f 402 404 398 400
f 403 401 399 405
f 404 406 396 398
f 405 399 397 407
f 406 408 394 396
f 407 397 395 409
f 408 410 392 394
f 409 395 393 411
f 410 412 390 392
f 411 393 391 413
f 420 418 412 410
f 421 411 413 419
f 422 420 410 408
f 423 409 411 421
f 424 422 408 406
f 425 407 409 423
f 426 424 406 404
f 427 405 407 425
f 428 426 404 402
f 429 403 405 427
f 414 416 428 402
f 415 403 429 417
f 320 444 442 318
f 321 319 443 445
f 390 412 444 320
f 391 321 445 413
f 318 442 312 310
f 319 311 313 443
f 430 414 388 382
f 431 383 389 415
f 418 440 444 412
f 419 413 445 441
f 446 444 440 438
f 447 439 441 445
f 446 438 436 434
f 447 435 437 439
f 448 446 434 432
f 449 433 435 447
f 448 432 450 430
f 449 431 451 433
f 430 450 416 414
f 431 415 417 451
f 448 430 382 312
f 449 313 383 431
f 442 446 448 312
f 443 313 449 447
f 444 446 442
f 445 443 447
f 450 452 476 416
f 451 417 477 453
f 432 462 452 450
f 433 451 453 463
f 434 460 462 432
f 435 433 463 461
f 436 458 460 434
f 437 435 461 459
f 438 456 458 436
f 439 437 459 457
f 440 454 456 438
f 441 439 457 455
f 418 474 454 440
f 419 441 455 475
f 416 476 464 428
f 417 429 465 477
f 428 464 466 426
f 429 427 467 465
f 426 466 468 424
f 427 425 469 467
f 424 468 470 422
f 425 423 471 469
f 422 470 472 420
f 423 421 473 471
f 420 472 474 418
f 421 419 475 473
f 456 480 478 458
f 457 459 479 481
f 480 482 484 478
f 481 479 485 483
f 482 488 486 484
f 483 485 487 489
f 488 490 492 486
f 489 487 493 491
f 476 486 492 464
f 477 465 493 487
f 484 486 476 452
f 485 453 477 487
f 462 478 484 452
f 463 453 485 479
f 478 462 460 458
f 479 459 461 463
f 474 480 456 454
f 475 455 457 481
f 482 480 474 472
f 483 473 475 481
f 488 482 472 470
f 489 471 473 483
f 490 488 470 468
f 491 469 471 489
f 492 490 468 466
f 493 467 469 491
f 492 466 464
f 493 465 467
f 390 504 502 392
f 391 393 503 505
f 392 502 500 394
f 393 395 501 503
f 394 500 498 396
f 395 397 499 501
f 396 498 496 398
f 397 399 497 499
f 398 496 494 400
f 399 401 495 497
f 400 494 506 388
f 401 389 507 495
f 502 504 506 494
f 503 495 507 505
f 496 500 502 494
f 497 495 503 501
f 498 500 496
f 499 497 501
f 382 388 506 314
f 383 315 507 389
f 506 504 322 314
f 507 315 323 505
f 322 504 390 320
f 323 321 391 505
